<?xml version="1.0" encoding="UTF-8" standalone="no"?><!DOCTYPE svg PUBLIC "-//W3C//DTD SVG 1.1//EN" "http://www.w3.org/Graphics/SVG/1.1/DTD/svg11.dtd"><svg width="100%" height="100%" viewBox="0 0 181 29" version="1.1" xmlns="http://www.w3.org/2000/svg" xmlns:xlink="http://www.w3.org/1999/xlink" xml:space="preserve" xmlns:serif="http://www.serif.com/" style="fill-rule:evenodd;clip-rule:evenodd;stroke-linejoin:round;stroke-miterlimit:2;"><rect id="reviewsio-logo--inverted" x="0" y="0" width="181" height="29" style="fill:none;"/><g id="reviewsio-logo"><g><g><path d="M46.616,22.021l-4.632,-5.963c2.974,-0.696 5.053,-2.637 5.053,-5.855l-0,-0.055c-0,-1.614 -0.59,-3.05 -1.587,-4.048c-0,0 -0,0 -0,0c-1.274,-1.274 -3.269,-2.036 -5.758,-2.036c0,0 -7.348,0 -7.348,0c-0.722,0 -1.344,0.616 -1.344,1.372l0,17.529c0,0.756 0.622,1.372 1.344,1.372c0.753,0 1.371,-0.617 1.371,-1.372l0,-6.397c0,0 5.264,0 5.264,0c-0,0 5.45,7.081 5.45,7.081c0.299,0.399 0.704,0.688 1.236,0.688c0.688,0 1.372,-0.622 1.372,-1.345c-0,-0.367 -0.156,-0.672 -0.421,-0.971Zm-2.322,-11.789l0,0.056l-0,0c-0,2.387 -2.014,3.789 -4.799,3.789l-5.78,0c0,0 0,-7.466 0,-7.466c0,0 5.808,0 5.808,0c2.994,0 4.771,1.342 4.771,3.621Z" style="fill:#fff;fill-rule:nonzero;"/><path d="M50.994,22.825c0,0.755 0.622,1.371 1.344,1.371c0,0 12.34,0 12.34,0c0.7,0 1.259,-0.56 1.259,-1.26c0,-0.699 -0.559,-1.259 -1.259,-1.259c0,0 -10.969,0 -10.969,0c0,0 0,-6.372 0,-6.372c0,0 9.567,0 9.567,0c0.7,0 1.26,-0.559 1.26,-1.259c0,-0.665 -0.56,-1.26 -1.26,-1.26l-9.567,0c0,0 0,-6.202 0,-6.202c0,0 10.829,0 10.829,0c0.699,0 1.26,-0.56 1.26,-1.26c0,-0.7 -0.561,-1.26 -1.26,-1.26c0,0 -12.2,0 -12.2,0c-0.722,0 -1.344,0.616 -1.344,1.372l0,17.389Z" style="fill:#fff;fill-rule:nonzero;"/><path d="M77.352,24.421l0.147,-0c0.735,-0.013 1.192,-0.427 1.483,-1.073l7.605,-17.567c0.068,-0.169 0.102,-0.338 0.102,-0.541c-0,-0.691 -0.584,-1.316 -1.344,-1.316c-0.602,0 -1.082,0.455 -1.317,0.923c-0.003,0.005 -0.006,0.01 -0.008,0.016l-6.583,15.769c-0,0 -6.557,-15.713 -6.557,-15.713c-0.234,-0.569 -0.711,-0.995 -1.38,-0.995c-0.758,0 -1.373,0.657 -1.373,1.343c-0,0.24 0.036,0.41 0.138,0.614l7.567,17.461c0.263,0.658 0.763,1.079 1.52,1.079Zm-1.29,-1.176c-0,0 -0,0 -0,0Z" style="fill:#fff;fill-rule:nonzero;"/><path d="M90.281,5.296l0,17.669c0,0.756 0.622,1.372 1.344,1.372c0.754,-0 1.371,-0.618 1.371,-1.372l0,-17.669c0,-0.755 -0.617,-1.372 -1.371,-1.372c-0.722,-0 -1.344,0.616 -1.344,1.372Z" style="fill:#fff;fill-rule:nonzero;"/><path d="M111.541,4.065l-0.032,-0.001c-0,0 -12.201,0 -12.201,0c-0.721,0 -1.343,0.616 -1.343,1.372l-0,17.389c-0,0.755 0.622,1.371 1.343,1.371c-0,0 12.341,0 12.341,0c0.698,0 1.259,-0.56 1.259,-1.26c-0,-0.699 -0.56,-1.259 -1.259,-1.259c-0,0 -10.969,0 -10.969,0c-0,0 -0,-6.372 -0,-6.372c-0,0 9.566,0 9.566,0c0.701,0 1.26,-0.559 1.26,-1.259c-0,-0.665 -0.559,-1.26 -1.26,-1.26l-9.566,0c-0,0 -0,-6.202 -0,-6.202c-0,0 10.829,0 10.829,0c0.698,0 1.26,-0.56 1.26,-1.26c-0,-0.689 -0.544,-1.242 -1.228,-1.259Z" style="fill:#fff;fill-rule:nonzero;"/><path d="M135.594,24.448l0.23,0c0.654,-0.013 1.125,-0.462 1.355,-1.121c-0.001,0.003 6.282,-17.441 6.282,-17.441c0.001,-0.003 0.002,-0.005 0.002,-0.007c0.063,-0.192 0.153,-0.419 0.153,-0.611c-0,-0.688 -0.65,-1.343 -1.372,-1.343c-0.646,-0 -1.098,0.427 -1.303,1.039c0.001,-0.002 -5.197,14.949 -5.197,14.949l-4.902,-14.948c-0.203,-0.611 -0.653,-1.04 -1.33,-1.04l-0,0.002l-0.141,-0.002c-0.712,-0 -1.128,0.429 -1.331,1.04l-4.902,14.947c0,0 -5.17,-14.895 -5.17,-14.895c-0.2,-0.601 -0.714,-1.092 -1.386,-1.092c-0.753,-0 -1.399,0.652 -1.399,1.371c-0,0.195 0.059,0.39 0.124,0.584l6.284,17.448c0.231,0.69 0.702,1.108 1.355,1.12l0.23,0c0.653,-0.013 1.125,-0.462 1.354,-1.121l4.842,-14.388l4.868,14.388c0.23,0.659 0.702,1.108 1.354,1.121Z" style="fill:#fff;fill-rule:nonzero;"/><path d="M157.781,18.842l-0,0.056c-0,1.812 -1.657,3.088 -4.125,3.088c-2.426,-0 -4.227,-0.735 -6.025,-2.259l-0.005,-0.005c-0.178,-0.173 -0.492,-0.317 -0.841,-0.317c-0.726,-0 -1.317,0.584 -1.317,1.344c-0,0.45 0.212,0.83 0.521,1.043c2.232,1.77 4.664,2.685 7.583,2.685c4.055,-0 6.952,-2.302 6.952,-5.803l-0,-0.057c-0,-3.111 -2.057,-4.808 -6.591,-5.796c-0,-0.001 -0.001,-0.001 -0.001,-0.001c-4.12,-0.883 -5.131,-1.804 -5.131,-3.57l-0,-0.056c-0,-1.649 1.547,-2.919 3.929,-2.919c1.77,-0 3.322,0.492 4.929,1.663c0.001,0 0.001,0.001 0.002,0.001c0.239,0.172 0.48,0.243 0.791,0.243c0.726,-0 1.315,-0.588 1.315,-1.316c-0,-0.513 -0.303,-0.891 -0.577,-1.097c-0.002,-0.001 -0.003,-0.002 -0.005,-0.003c-1.837,-1.32 -3.758,-1.982 -6.399,-1.982c-3.887,-0 -6.701,2.392 -6.701,5.607l0.25,0.25c-0,-0 -0.25,-0.249 -0.25,-0.249c-0,0 -0,0.053 -0,0.053c-0,-0 0.25,0.251 0.25,0.251l-0.25,-0.25c-0,3.34 2.112,4.894 6.789,5.91c0,0 0,0 0.001,0c3.924,0.829 4.906,1.75 4.906,3.486Z" style="fill:#fff;fill-rule:nonzero;"/></g><g><path d="M163.614,21.578l-0.023,-0c-0.528,-0 -0.903,0.377 -0.903,0.887l0.15,0.15c-0,-0 -0.15,-0.15 -0.15,-0.15l-0,0.314c-0,0.508 0.376,0.903 0.903,0.903c0.508,-0 0.887,-0.394 0.887,-0.903c-0,0.082 -0.067,0.15 -0.15,0.15c-0,-0 0.15,-0.017 0.15,-0.158l-0,-0.306c-0,-0.503 -0.367,-0.876 -0.864,-0.887Zm-0.763,1.348c-0.008,0.002 -0.013,0.003 -0.013,0.003c0.004,-0 0.009,-0.001 0.013,-0.001l-0,-0.002Z" style="fill:#fff;fill-rule:nonzero;"/><path d="M166.815,15.877l-0,7.043c-0,0.429 0.332,0.762 0.761,0.762c0.432,-0 0.747,-0.332 0.747,-0.762l-0,-7.043c-0,-0.431 -0.333,-0.762 -0.762,-0.762c-0.411,-0 -0.746,0.351 -0.746,0.762Zm-0.11,-2.871l-0,-0c-0,0.46 0.377,0.793 0.856,0.793c0.497,-0 0.871,-0.334 0.871,-0.793l-0,-0.203c-0,-0.48 -0.374,-0.794 -0.871,-0.794c-0.479,-0 -0.856,0.313 -0.856,0.794l-0,0.203Z" style="fill:#fff;fill-rule:nonzero;"/><path d="M179.084,19.41l0,-0.034c0,-2.373 -1.851,-4.355 -4.369,-4.355c-2.533,-0 -4.386,2.014 -4.386,4.386l0.031,0.031l-0.031,-0.031l0,0.031c0,2.371 1.836,4.354 4.354,4.354c2.534,-0 4.4,-2.013 4.401,-4.382Zm-1.539,0.028l0,-0.031c0,-1.657 -1.235,-3.02 -2.862,-3.02c-1.671,-0 -2.815,1.362 -2.815,2.989l0,0.031c0,1.656 1.221,3.002 2.847,3.002c1.67,-0 2.83,-1.346 2.83,-2.971Z" style="fill:#fff;"/></g></g><g><g><path d="M22.737,5.832l-1.206,0.605c2.351,1.898 3.5,4.35 3.713,7.317c-0.178,5.727 -2.88,9.407 -7.522,10.986c-5.362,1.615 -8.76,0.308 -12.048,-3.042l-0.207,1.288l1.337,1.393c4.65,4.846 12.359,5.005 17.205,0.355c4.846,-4.65 5.005,-12.36 0.355,-17.206l-1.627,-1.696Z" style="fill:#ffe51c;"/><path d="M4.806,22.268l0.807,-0.705c-3.356,-4.757 -3.497,-11.72 1.097,-15.553c3.405,-2.842 10.161,-4.315 15.566,0.444l0.403,-0.71l-1.317,-1.373c-4.65,-4.845 -12.36,-5.004 -17.205,-0.354c-4.846,4.65 -5.005,12.359 -0.355,17.205l1.004,1.046Z" style="fill:#00e5d6;"/></g><path d="M1.916,14.384c-0,6.733 5.459,12.192 12.192,12.192c6.734,0 12.193,-5.459 12.193,-12.192c-0,-6.734 -5.459,-12.193 -12.193,-12.193c-6.733,0 -12.192,5.459 -12.192,12.193Zm8.486,2.205c0.128,-0.405 -0.014,-0.847 -0.355,-1.102c-0.903,-0.674 -2.682,-2.003 -3.877,-2.895c-0.173,-0.129 -0.243,-0.354 -0.176,-0.559c0.068,-0.204 0.26,-0.342 0.475,-0.342l4.634,0c0.431,0 0.813,-0.276 0.949,-0.686c0.365,-1.103 1.091,-3.296 1.573,-4.749c0.067,-0.204 0.258,-0.342 0.473,-0.343c0.216,0 0.407,0.138 0.475,0.342c0.487,1.454 1.222,3.65 1.59,4.753c0.137,0.408 0.519,0.683 0.949,0.683c1.096,0 3.207,0 4.645,0c0.215,0 0.406,0.137 0.474,0.341c0.068,0.204 -0.001,0.429 -0.173,0.558c-1.192,0.898 -2.972,2.239 -3.873,2.917c-0.339,0.255 -0.48,0.696 -0.351,1.101c0.348,1.1 1.046,3.305 1.518,4.794c0.066,0.209 -0.011,0.436 -0.19,0.561c-0.179,0.125 -0.418,0.12 -0.591,-0.013c-1.198,-0.919 -2.947,-2.262 -3.863,-2.965c-0.36,-0.276 -0.861,-0.275 -1.221,0.002c-0.907,0.702 -2.632,2.036 -3.82,2.954c-0.173,0.134 -0.412,0.14 -0.592,0.015c-0.179,-0.126 -0.256,-0.353 -0.19,-0.561c0.471,-1.494 1.169,-3.703 1.517,-4.806Z" style="fill:#fff;fill-rule:nonzero;"/></g></g></svg>